<svg xmlns="http://www.w3.org/2000/svg" xmlns:xlink="http://www.w3.org/1999/xlink" version="1.1" x="0px" y="0px" width="16px" height="16px" viewBox="0 0 16 16" enable-background="new 0 0 16 16" xml:space="preserve"><style>.style0{fill:	#231F20;}</style><path d="M14 11l2-8H3L2 1V0H0v1h1l1 2l1 8l-0.673 2.019C1.581 13.1 1 13.7 1 14.501c0 0.8 0.7 1.5 1.5 1.5 c0.653 0 1.202-0.419 1.408-1.001h6.184c0.206 0.6 0.8 1 1.4 1.001c0.828 0 1.5-0.672 1.5-1.5s-0.672-1.5-1.5-1.5 c-0.651 0-1.201 0.418-1.408 0.999H3.908c-0.118-0.332-0.348-0.607-0.646-0.785L4 11H14z" class="style0"/></svg>