<svg xmlns="http://www.w3.org/2000/svg" xmlns:xlink="http://www.w3.org/1999/xlink" version="1.1" x="0px" y="0px" width="16px" height="16px" viewBox="0 0 16 16" enable-background="new 0 0 16 16" xml:space="preserve"><style>.style0{fill:	#231F20;}</style><g><path d="M11.733 13.875h-1.066v-8H8.533v8H7.467v-8H5.333v8H4.267v-8H2.134v9.5c0 0.3 0.2 0.5 0.5 0.5h10.666 c0.294 0 0.533-0.225 0.533-0.5v-9.5h-2.133V13.875z" class="style0"/><path d="M14.934 2h-4.267V0.5c0-0.274-0.24-0.5-0.534-0.5H5.867C5.574 0 5.3 0.2 5.3 0.5V2H1.067 C0.48 2 0 2.5 0 3v1c0 0.6 0.5 1 1.1 1h13.866C15.521 5 16 4.5 16 4V3C16 2.5 15.5 2 14.9 2z M6.4 2V1h3.2v1H6.4z" class="style0"/></g><path d="M10 1.5C10 1.8 9.8 2 9.5 2h-3C6.224 2 6 1.8 6 1.5l0 0C6 1.2 6.2 1 6.5 1h3 C9.776 1 10 1.2 10 1.5L10 1.5z" class="style0"/></svg>