<svg xmlns="http://www.w3.org/2000/svg" width="16" height="16"><g><path d="M14.768 4.355c.193-.196.191-.515-.002-.709l-1.371-1.371c-.188-.194-.512-.194-.705.001l-5.333 5.37c-.195.195-.195.515 0 .709l5.333 5.37c.193.191.517.192.705 0l1.371-1.371c.193-.19.195-.516.002-.709l-3.258-3.29c-.193-.194-.193-.516 0-.71l3.258-3.29zM7.767 4.355c.193-.195.192-.514-.002-.709l-1.372-1.371c-.195-.194-.513-.193-.706.001l-5.334 5.37c-.194.195-.194.515 0 .709l5.334 5.37c.194.191.512.192.706 0l1.372-1.371c.194-.19.195-.516.002-.709l-3.259-3.29c-.194-.195-.194-.517 0-.711l3.259-3.289z"/></g></svg>