<svg xmlns="http://www.w3.org/2000/svg" width="16" height="16"><g><path d="M1.235 4.355c-.194-.195-.193-.514.001-.709l1.371-1.371c.195-.194.513-.193.706.001l5.335 5.369c.188.195.188.515 0 .708l-5.335 5.37c-.194.192-.512.193-.706.002l-1.371-1.371c-.194-.191-.195-.517-.001-.709l3.257-3.29c.194-.195.194-.517 0-.711l-3.257-3.289zM8.236 4.355c-.193-.195-.193-.514.002-.709l1.372-1.371c.19-.194.514-.194.705.001l5.334 5.369c.19.195.19.515 0 .708l-5.334 5.37c-.191.192-.515.193-.705.002l-1.372-1.371c-.195-.191-.195-.517-.002-.709l3.258-3.29c.193-.195.193-.517 0-.711l-3.258-3.289z"/></g></svg>