<svg xmlns="http://www.w3.org/2000/svg" width="16" height="16"><g><path d="M2.565 5.541l.001-.021c-1.518.62-2.566 1.845-2.566 3.274 0 1.146.68 2.157 1.727 2.838.306 2.071-1.311 3.368-1.311 3.368s2.615.088 4.199-2.508l.143.012c1.151 0 2.192-.332 3.017-.861-3.027-.875-5.21-3.277-5.21-6.102zM13.924 8.964c.469-.304.881-.659 1.205-1.062-.211.062-.43.099-.65.099l-.291-.043.021-.048-.082.038c-.34-.052-.668-.154-.955-.349l-.664-.45-.674.451c-.379.259-.834.399-1.309.399-.479 0-.938-.143-1.328-.413-.802-.56-1.172-1.526-.945-2.469l.264-1.113-.788-.784c-.384-.364-.605-.846-.682-1.353-1.498.804-2.481 2.15-2.481 3.674 0 2.462 2.561 4.458 5.718 4.458l.176-.009c1.902 3.113 5.043 3.009 5.043 3.009s-1.938-1.554-1.578-4.035zM15.98 1.406c-.051-.132-.176-.219-.316-.219h-1.988l-.857-1.974c-.053-.128-.178-.213-.317-.213s-.264.085-.314.214l-.858 1.974h-1.99c-.141 0-.266.087-.314.219-.051.132-.016.28.091.373l1.604 1.596-.521 2.208c-.035.136.021.276.133.356.058.04.126.06.192.06.062 0 .133-.019.188-.058l1.789-1.205 1.785 1.205c.059.039.125.058.19.058.066 0 .142-.02.193-.06.113-.08.168-.221.137-.357l-.521-2.208 1.604-1.596c.104-.092.139-.241.09-.373z"/></g></svg>