<svg xmlns="http://www.w3.org/2000/svg" width="16" height="16"><g><path d="M2.565 5.458l.001-.021c-1.518.62-2.566 1.845-2.566 3.274 0 1.146.68 2.157 1.727 2.838.306 2.071-1.311 3.368-1.311 3.368s2.615.088 4.199-2.507l.143.011c1.151 0 2.192-.332 3.017-.862-3.027-.873-5.21-3.276-5.21-6.101zM13.92 8.898c1.271-.818 2.082-2.061 2.082-3.44 0-2.462-2.561-4.458-5.719-4.458s-5.718 1.996-5.718 4.458 2.561 4.458 5.718 4.458l.178-.007c1.902 3.112 5.041 3.007 5.041 3.007s-1.93-1.546-1.582-4.018z"/></g></svg>