<svg xmlns="http://www.w3.org/2000/svg" width="16" height="16"><path d="M11.82 11.168c1.332-.781 2.182-1.962 2.182-3.283 0-2.084-2.117-3.809-4.902-4.174.826-.402 1.402-1.244 1.402-2.227 0-1.371-1.111-2.483-2.484-2.483s-2.482 1.112-2.482 2.483c0 .98.573 1.82 1.397 2.224-2.796.362-4.918 2.09-4.918 4.177 0 2.348 2.683 4.254 5.993 4.254l.186-.007c1.996 2.97 5.283 2.867 5.283 2.867s-2.022-1.474-1.657-3.831zm-4.82-3.257v-4.165c.312.14.654.222 1.018.222.354 0 .686-.074.984-.205v4.147c0 .809-2.002.826-2.002.001z"/></svg>