<svg xmlns="http://www.w3.org/2000/svg" width="16" height="16"><g><path d="M12.08 11.291c.465-.382.855-.816 1.164-1.291h-3.867c-1.033 0-1.875-.842-1.875-1.875v-4.25c0-.718.406-1.343 1-1.658v-.006c-.484-.082-.985-.128-1.502-.128-3.866 0-7 2.444-7 5.459 0 3.015 3.134 5.458 7 5.458.478 0 .943-.039 1.395-.109 1.895 3.22 5.107 3.109 5.107 3.109s-2.285-1.838-1.422-4.709zM15.627 3.5h-.625v-1.5c0-1.381-1.119-2.5-2.5-2.5s-2.5 1.119-2.5 2.5v1.5h-.625c-.207 0-.375.169-.375.375v4.25c0 .206.168.375.375.375h6.25c.205 0 .375-.169.375-.375v-4.25c0-.206-.17-.375-.375-.375zm-4.367-1.5c0-.685.559-1.241 1.242-1.241s1.24.557 1.24 1.241v1.5h-2.482v-1.5z"/></g></svg>