<svg xmlns="http://www.w3.org/2000/svg" width="16" height="16"><g><path d="M13.084 10.279c.469-.391.873-.828 1.182-1.312-.391-.035-.77-.147-1.096-.367l-.668-.451-.668.451c-.387.261-.84.4-1.309.4-.479 0-.938-.145-1.326-.414-.803-.557-1.174-1.524-.947-2.469l.264-1.114-.788-.784c-.677-.642-.909-1.644-.575-2.522.082-.217.198-.415.335-.593-3.627.206-6.488 2.559-6.488 5.438 0 3.015 3.134 5.458 7.002 5.458.477 0 .936-.05 1.385-.121 1.895 3.234 5.115 3.121 5.115 3.121s-2.291-1.844-1.418-4.721zM15.98 2.406c-.051-.132-.176-.219-.316-.219h-1.988l-.857-1.974c-.053-.129-.178-.213-.317-.213s-.264.084-.314.213l-.858 1.974h-1.988c-.141 0-.268.087-.316.219-.049.131-.014.28.094.372l1.604 1.596-.524 2.208c-.033.137.021.277.137.357.06.04.125.06.19.06.062 0 .134-.019.188-.058l1.785-1.205 1.787 1.206c.059.038.125.058.192.058s.14-.02.191-.06c.115-.08.17-.22.139-.357l-.521-2.208 1.604-1.596c.102-.093.137-.241.088-.373z"/></g></svg>