<svg xmlns="http://www.w3.org/2000/svg" width="16" height="16"><g><path d="M8.686 9.209c-.1-.102-.141-.266-.002-.402l.396-.418c.496-.521.568-1.331.174-1.968-.088-.153-.133-.233-.205-.304l-2.804-2.805c-.296-.294-.688-.457-1.105-.457-.43 0-.831.171-1.129.481l-.237.268c-.604.628-.595 1.647.024 2.268l.213.216c-.278.407-.572 1.06-.677 1.658l-.752-.762c-.636-.637-.984-1.487-.982-2.392.002-.905.354-1.753.992-2.387l.127-.123c.637-.633 1.487-.982 2.393-.982.909 0 1.761.351 2.398.987l2.758 2.764.168.201.065.089c.726.904.935 2.101.56 3.2-.172.507-.438.94-.789 1.293l-.572.573-1.014-.998zM10.889 14.9c-.906 0-1.754-.354-2.389-.988l-2.789-2.771-.118-.145-.072-.092c-.726-.873-.961-2.047-.628-3.137.169-.554.448-1.027.829-1.406l.557-.553 1.043 1.043c.084.084.103.176.103.238 0 .087-.034.172-.095.231l-.424.437c-.517.538-.576 1.393-.138 2.032l.161.238 2.825 2.801c.293.295.686.457 1.102.457.433 0 .828-.172 1.127-.482l.246-.281c.604-.631.59-1.646-.026-2.27l-.185-.176c.299-.436.646-1.154.664-1.816l.732.727c1.32 1.318 1.32 3.469.004 4.783l-.143.146c-.634.633-1.482.984-2.386.984z"/></g></svg>