<svg xmlns="http://www.w3.org/2000/svg" width="16" height="16"><g><path d="M1.75 0h-.5c-.69 0-1.25.56-1.25 1.25v.5c0 .69.56 1.25 1.25 1.25h.5c.69 0 1.25-.56 1.25-1.25v-.5c0-.69-.56-1.25-1.25-1.25zM14.752 0h-8.502c-.69 0-1.25.56-1.25 1.25v.5c0 .69.56 1.25 1.25 1.25h8.502c.689 0 1.25-.56 1.25-1.25v-.5c0-.69-.561-1.25-1.25-1.25zM1.75 6h-.5c-.69 0-1.25.56-1.25 1.25v.5c0 .689.56 1.25 1.25 1.25h.5c.69 0 1.25-.561 1.25-1.25v-.5c0-.69-.56-1.25-1.25-1.25zM14.752 6h-8.502c-.69 0-1.25.56-1.25 1.25v.5c0 .689.56 1.25 1.25 1.25h8.502c.689 0 1.25-.561 1.25-1.25v-.5c0-.69-.561-1.25-1.25-1.25zM1.75 12h-.5c-.69 0-1.25.561-1.25 1.25v.5c0 .689.56 1.25 1.25 1.25h.5c.69 0 1.25-.561 1.25-1.25v-.5c0-.689-.56-1.25-1.25-1.25zM14.752 12h-8.502c-.69 0-1.25.561-1.25 1.25v.5c0 .689.56 1.25 1.25 1.25h8.502c.689 0 1.25-.561 1.25-1.25v-.5c0-.689-.561-1.25-1.25-1.25z"/></g></svg>